<?xml version="1.0" encoding="UTF-8" standalone="no"?>
<!DOCTYPE svg PUBLIC "-//W3C//DTD SVG 1.1//EN"
 "http://www.w3.org/Graphics/SVG/1.1/DTD/svg11.dtd">
<!-- Generated by graphviz version 10.0.1 (20240210.2158)
 -->
<!-- Title: Object Pages: 1 -->
<svg width="484pt" height="493pt"
 viewBox="0.00 0.00 483.50 492.50" xmlns="http://www.w3.org/2000/svg" xmlns:xlink="http://www.w3.org/1999/xlink">
<g id="graph0" class="graph" transform="scale(1 1) rotate(0) translate(4 488.5)">
<title>Object</title>
<!-- Node1 -->
<g id="Node000001" class="node">
<title>Node1</title>
<g id="a_Node000001"><a xlink:title="Main entry point.">
<polygon fill="#999999" stroke="none" points="323.5,-116 213.5,-116 213.5,0 323.5,0 323.5,-116"/>
<text text-anchor="start" x="254.25" y="-102.5" font-family="Helvetica,sans-Serif" font-size="10.00">Object</text>
<text text-anchor="start" x="217.5" y="-87.5" font-family="Helvetica,sans-Serif" font-size="10.00">+</text>
<text text-anchor="start" x="227.5" y="-87.5" font-family="Helvetica,sans-Serif" font-size="10.00">HookType hook_type</text>
<text text-anchor="start" x="217.5" y="-72.5" font-family="Helvetica,sans-Serif" font-size="10.00">+</text>
<text text-anchor="start" x="227.5" y="-72.5" font-family="Helvetica,sans-Serif" font-size="10.00">string hook_name</text>
<text text-anchor="start" x="217.5" y="-57.5" font-family="Helvetica,sans-Serif" font-size="10.00">+</text>
<text text-anchor="start" x="227.5" y="-57.5" font-family="Helvetica,sans-Serif" font-size="10.00">map&lt; string, string</text>
<text text-anchor="start" x="227.5" y="-46.25" font-family="Helvetica,sans-Serif" font-size="10.00"> &gt; metadata</text>
<text text-anchor="start" x="217.5" y="-31.5" font-family="Helvetica,sans-Serif" font-size="10.00">+</text>
<text text-anchor="start" x="227.5" y="-31.5" font-family="Helvetica,sans-Serif" font-size="10.00">map&lt; string, string</text>
<text text-anchor="start" x="227.5" y="-20.25" font-family="Helvetica,sans-Serif" font-size="10.00"> &gt; spec</text>
<text text-anchor="start" x="267" y="-5.5" font-family="Helvetica,sans-Serif" font-size="10.00"> </text>
<polygon fill="#666666" stroke="#666666" points="213.5,-99 213.5,-99 323.5,-99 323.5,-99 213.5,-99"/>
<polygon fill="#666666" stroke="#666666" points="213.5,-17 213.5,-17 225.5,-17 225.5,-17 213.5,-17"/>
<polygon fill="#666666" stroke="#666666" points="225.5,-17 225.5,-17 323.5,-17 323.5,-17 225.5,-17"/>
<polygon fill="none" stroke="#666666" points="213.5,0 213.5,-116 323.5,-116 323.5,0 213.5,0"/>
</a>
</g>
</g>
<!-- Node2 -->
<g id="Node000002" class="node">
<title>Node2</title>
<g id="a_Node000002"><a xlink:href="struct_session_state.html" target="_top" xlink:title="Created for every authenticated request and stored in Redis.">
<polygon fill="white" stroke="none" points="272,-373.25 123,-373.25 123,-163.25 272,-163.25 272,-373.25"/>
<text text-anchor="start" x="168.25" y="-359.75" font-family="Helvetica,sans-Serif" font-size="10.00">SessionState</text>
<text text-anchor="start" x="127" y="-344.75" font-family="Helvetica,sans-Serif" font-size="10.00">+</text>
<text text-anchor="start" x="137" y="-344.75" font-family="Helvetica,sans-Serif" font-size="10.00">int64 last_check</text>
<text text-anchor="start" x="127" y="-329.75" font-family="Helvetica,sans-Serif" font-size="10.00">+</text>
<text text-anchor="start" x="137" y="-329.75" font-family="Helvetica,sans-Serif" font-size="10.00">double allowance</text>
<text text-anchor="start" x="127" y="-314.75" font-family="Helvetica,sans-Serif" font-size="10.00">+</text>
<text text-anchor="start" x="137" y="-314.75" font-family="Helvetica,sans-Serif" font-size="10.00">double rate</text>
<text text-anchor="start" x="127" y="-299.75" font-family="Helvetica,sans-Serif" font-size="10.00">+</text>
<text text-anchor="start" x="137" y="-299.75" font-family="Helvetica,sans-Serif" font-size="10.00">double per</text>
<text text-anchor="start" x="127" y="-284.75" font-family="Helvetica,sans-Serif" font-size="10.00">+</text>
<text text-anchor="start" x="137" y="-284.75" font-family="Helvetica,sans-Serif" font-size="10.00">int64 expires</text>
<text text-anchor="start" x="127" y="-269.75" font-family="Helvetica,sans-Serif" font-size="10.00">+</text>
<text text-anchor="start" x="137" y="-269.75" font-family="Helvetica,sans-Serif" font-size="10.00">int64 quota_max</text>
<text text-anchor="start" x="127" y="-254.75" font-family="Helvetica,sans-Serif" font-size="10.00">+</text>
<text text-anchor="start" x="137" y="-254.75" font-family="Helvetica,sans-Serif" font-size="10.00">int64 quota_renews</text>
<text text-anchor="start" x="127" y="-239.75" font-family="Helvetica,sans-Serif" font-size="10.00">+</text>
<text text-anchor="start" x="137" y="-239.75" font-family="Helvetica,sans-Serif" font-size="10.00">int64 quota_remaining</text>
<text text-anchor="start" x="127" y="-224.75" font-family="Helvetica,sans-Serif" font-size="10.00">+</text>
<text text-anchor="start" x="137" y="-224.75" font-family="Helvetica,sans-Serif" font-size="10.00">int64 quota_renewal_rate</text>
<text text-anchor="start" x="127" y="-209.75" font-family="Helvetica,sans-Serif" font-size="10.00">+</text>
<text text-anchor="start" x="137" y="-209.75" font-family="Helvetica,sans-Serif" font-size="10.00">map&lt; string, AccessDefinition</text>
<text text-anchor="start" x="137" y="-198.5" font-family="Helvetica,sans-Serif" font-size="10.00"> &gt; access_rights</text>
<text text-anchor="start" x="137" y="-183.75" font-family="Helvetica,sans-Serif" font-size="10.00">and 18 more...</text>
<text text-anchor="start" x="196" y="-168.75" font-family="Helvetica,sans-Serif" font-size="10.00"> </text>
<polygon fill="#666666" stroke="#666666" points="123,-356.25 123,-356.25 272,-356.25 272,-356.25 123,-356.25"/>
<polygon fill="#666666" stroke="#666666" points="123,-180.25 123,-180.25 135,-180.25 135,-180.25 123,-180.25"/>
<polygon fill="#666666" stroke="#666666" points="135,-180.25 135,-180.25 272,-180.25 272,-180.25 135,-180.25"/>
<polygon fill="none" stroke="#666666" points="123,-163.25 123,-373.25 272,-373.25 272,-163.25 123,-163.25"/>
</a>
</g>
</g>
<!-- Node2&#45;&gt;Node1 -->
<g id="edge1_Node000001_Node000002" class="edge">
<title>Node2&#45;&gt;Node1</title>
<g id="a_edge1_Node000001_Node000002"><a xlink:title=" ">
<path fill="none" stroke="#63b8ff" d="M232.9,-163.43C237,-151.38 241.11,-139.33 245,-127.92"/>
<polygon fill="none" stroke="#63b8ff" points="244.97,-128.03 243.12,-121.06 248.84,-116.67 250.69,-123.64 244.97,-128.03"/>
</a>
</g>
<text text-anchor="middle" x="262.88" y="-135.75" font-family="Helvetica,sans-Serif" font-size="10.00" fill="grey"> +session</text>
</g>
<!-- Node3 -->
<g id="Node000003" class="node">
<title>Node3</title>
<g id="a_Node000003"><a xlink:href="struct_basic_auth_data.html" target="_top" xlink:title="Contains a hashed password and the name of the hashing algorithm used.">
<polygon fill="white" stroke="none" points="87,-484.5 0,-484.5 0,-420.5 87,-420.5 87,-484.5"/>
<text text-anchor="start" x="10.5" y="-471" font-family="Helvetica,sans-Serif" font-size="10.00">BasicAuthData</text>
<text text-anchor="start" x="4" y="-456" font-family="Helvetica,sans-Serif" font-size="10.00">+</text>
<text text-anchor="start" x="14" y="-456" font-family="Helvetica,sans-Serif" font-size="10.00">string password</text>
<text text-anchor="start" x="4" y="-441" font-family="Helvetica,sans-Serif" font-size="10.00">+</text>
<text text-anchor="start" x="14" y="-441" font-family="Helvetica,sans-Serif" font-size="10.00">string hash</text>
<text text-anchor="start" x="42" y="-426" font-family="Helvetica,sans-Serif" font-size="10.00"> </text>
<polygon fill="#666666" stroke="#666666" points="0,-467.5 0,-467.5 87,-467.5 87,-467.5 0,-467.5"/>
<polygon fill="#666666" stroke="#666666" points="0,-437.5 0,-437.5 12,-437.5 12,-437.5 0,-437.5"/>
<polygon fill="#666666" stroke="#666666" points="12,-437.5 12,-437.5 87,-437.5 87,-437.5 12,-437.5"/>
<polygon fill="none" stroke="#666666" points="0,-420.5 0,-484.5 87,-484.5 87,-420.5 0,-420.5"/>
</a>
</g>
</g>
<!-- Node3&#45;&gt;Node2 -->
<g id="edge2_Node000002_Node000003" class="edge">
<title>Node3&#45;&gt;Node2</title>
<g id="a_edge2_Node000002_Node000003"><a xlink:title=" ">
<path fill="none" stroke="#63b8ff" d="M57.46,-420.71C62.49,-410.92 68.58,-400.29 75.25,-391.25 86.79,-375.61 100.32,-360.08 114.09,-345.59"/>
<polygon fill="none" stroke="#63b8ff" points="114.18,-345.5 115.49,-338.4 122.53,-336.88 121.23,-343.97 114.18,-345.5"/>
</a>
</g>
<text text-anchor="middle" x="115.62" y="-393" font-family="Helvetica,sans-Serif" font-size="10.00" fill="grey"> +basic_auth_data</text>
</g>
<!-- Node4 -->
<g id="Node000004" class="node">
<title>Node4</title>
<g id="a_Node000004"><a xlink:href="struct_j_w_t_data.html" target="_top" xlink:title="Added to sessions where a Tyk key (embedding a shared secret) is used as the public key for signing t...">
<polygon fill="white" stroke="none" points="179.5,-477 107.5,-477 107.5,-428 179.5,-428 179.5,-477"/>
<text text-anchor="start" x="122.5" y="-463.5" font-family="Helvetica,sans-Serif" font-size="10.00">JWTData</text>
<text text-anchor="start" x="111.5" y="-448.5" font-family="Helvetica,sans-Serif" font-size="10.00">+</text>
<text text-anchor="start" x="121.5" y="-448.5" font-family="Helvetica,sans-Serif" font-size="10.00">string secret</text>
<text text-anchor="start" x="142" y="-433.5" font-family="Helvetica,sans-Serif" font-size="10.00"> </text>
<polygon fill="#666666" stroke="#666666" points="107.5,-460 107.5,-460 179.5,-460 179.5,-460 107.5,-460"/>
<polygon fill="#666666" stroke="#666666" points="107.5,-445 107.5,-445 119.5,-445 119.5,-445 107.5,-445"/>
<polygon fill="#666666" stroke="#666666" points="119.5,-445 119.5,-445 179.5,-445 179.5,-445 119.5,-445"/>
<polygon fill="none" stroke="#666666" points="107.5,-428 107.5,-477 179.5,-477 179.5,-428 107.5,-428"/>
</a>
</g>
</g>
<!-- Node4&#45;&gt;Node2 -->
<g id="edge3_Node000002_Node000004" class="edge">
<title>Node4&#45;&gt;Node2</title>
<g id="a_edge3_Node000002_Node000004"><a xlink:title=" ">
<path fill="none" stroke="#63b8ff" d="M150.45,-428.05C153.88,-416.48 158.29,-401.58 163.04,-385.55"/>
<polygon fill="none" stroke="#63b8ff" points="163.06,-385.48 160.93,-378.59 166.47,-373.97 168.6,-380.86 163.06,-385.48"/>
</a>
</g>
<text text-anchor="middle" x="184.38" y="-393" font-family="Helvetica,sans-Serif" font-size="10.00" fill="grey"> +jwt_data</text>
</g>
<!-- Node5 -->
<g id="Node000005" class="node">
<title>Node5</title>
<g id="a_Node000005"><a xlink:href="struct_monitor.html" target="_top" xlink:title="Allow API endpoint users, stakeholders or an organisation to be notified by webhook when certain quot...">
<polygon fill="white" stroke="none" points="315,-482.5 198,-482.5 198,-422.5 315,-422.5 315,-482.5"/>
<text text-anchor="start" x="240.38" y="-469" font-family="Helvetica,sans-Serif" font-size="10.00">Monitor</text>
<text text-anchor="start" x="202" y="-454" font-family="Helvetica,sans-Serif" font-size="10.00">+</text>
<text text-anchor="start" x="212" y="-454" font-family="Helvetica,sans-Serif" font-size="10.00">repeated double trigger</text>
<text text-anchor="start" x="212" y="-442.75" font-family="Helvetica,sans-Serif" font-size="10.00">_limits</text>
<text text-anchor="start" x="255" y="-428" font-family="Helvetica,sans-Serif" font-size="10.00"> </text>
<polygon fill="#666666" stroke="#666666" points="198,-465.5 198,-465.5 315,-465.5 315,-465.5 198,-465.5"/>
<polygon fill="#666666" stroke="#666666" points="198,-439.5 198,-439.5 210,-439.5 210,-439.5 198,-439.5"/>
<polygon fill="#666666" stroke="#666666" points="210,-439.5 210,-439.5 315,-439.5 315,-439.5 210,-439.5"/>
<polygon fill="none" stroke="#666666" points="198,-422.5 198,-482.5 315,-482.5 315,-422.5 198,-422.5"/>
</a>
</g>
</g>
<!-- Node5&#45;&gt;Node2 -->
<g id="edge4_Node000002_Node000005" class="edge">
<title>Node5&#45;&gt;Node2</title>
<g id="a_edge4_Node000002_Node000005"><a xlink:title=" ">
<path fill="none" stroke="#63b8ff" d="M247.15,-422.62C243.68,-411.91 239.5,-399 235.06,-385.27"/>
<polygon fill="none" stroke="#63b8ff" points="235.07,-385.3 229.42,-380.83 231.37,-373.89 237.03,-378.36 235.07,-385.3"/>
</a>
</g>
<text text-anchor="middle" x="260.12" y="-393" font-family="Helvetica,sans-Serif" font-size="10.00" fill="grey"> +monitor</text>
</g>
<!-- Node6 -->
<g id="Node000006" class="node">
<title>Node6</title>
<g id="a_Node000006"><a xlink:href="struct_response_object.html" target="_top" xlink:title="Contains the HTTP reponse data received from the upstream.">
<polygon fill="white" stroke="none" points="414,-320.75 315,-320.75 315,-215.75 414,-215.75 414,-320.75"/>
<text text-anchor="start" x="328.12" y="-307.25" font-family="Helvetica,sans-Serif" font-size="10.00">ResponseObject</text>
<text text-anchor="start" x="319" y="-292.25" font-family="Helvetica,sans-Serif" font-size="10.00">+</text>
<text text-anchor="start" x="329" y="-292.25" font-family="Helvetica,sans-Serif" font-size="10.00">int32 status_code</text>
<text text-anchor="start" x="319" y="-277.25" font-family="Helvetica,sans-Serif" font-size="10.00">+</text>
<text text-anchor="start" x="329" y="-277.25" font-family="Helvetica,sans-Serif" font-size="10.00">bytes raw_body</text>
<text text-anchor="start" x="319" y="-262.25" font-family="Helvetica,sans-Serif" font-size="10.00">+</text>
<text text-anchor="start" x="329" y="-262.25" font-family="Helvetica,sans-Serif" font-size="10.00">string body</text>
<text text-anchor="start" x="319" y="-247.25" font-family="Helvetica,sans-Serif" font-size="10.00">+</text>
<text text-anchor="start" x="329" y="-247.25" font-family="Helvetica,sans-Serif" font-size="10.00">map&lt; string, string</text>
<text text-anchor="start" x="329" y="-236" font-family="Helvetica,sans-Serif" font-size="10.00"> &gt; headers</text>
<text text-anchor="start" x="363" y="-221.25" font-family="Helvetica,sans-Serif" font-size="10.00"> </text>
<polygon fill="#666666" stroke="#666666" points="315,-303.75 315,-303.75 414,-303.75 414,-303.75 315,-303.75"/>
<polygon fill="#666666" stroke="#666666" points="315,-232.75 315,-232.75 327,-232.75 327,-232.75 315,-232.75"/>
<polygon fill="#666666" stroke="#666666" points="327,-232.75 327,-232.75 414,-232.75 414,-232.75 327,-232.75"/>
<polygon fill="none" stroke="#666666" points="315,-215.75 315,-320.75 414,-320.75 414,-215.75 315,-215.75"/>
</a>
</g>
</g>
<!-- Node6&#45;&gt;Node1 -->
<g id="edge5_Node000001_Node000006" class="edge">
<title>Node6&#45;&gt;Node1</title>
<g id="a_edge5_Node000001_Node000006"><a xlink:title=" ">
<path fill="none" stroke="#63b8ff" d="M340.77,-215.77C328.47,-189.1 313.29,-156.16 300.02,-127.38"/>
<polygon fill="none" stroke="#63b8ff" points="300.06,-127.46 293.91,-123.68 295.03,-116.56 301.18,-120.33 300.06,-127.46"/>
</a>
</g>
<text text-anchor="middle" x="331.88" y="-135.75" font-family="Helvetica,sans-Serif" font-size="10.00" fill="grey"> +response</text>
</g>
<!-- Node7 -->
<g id="Node000007" class="node">
<title>Node7</title>
<g id="a_Node000007"><a xlink:href="struct_header.html" target="_top" xlink:title="A reponse header that contains multiple associated values.">
<polygon fill="white" stroke="none" points="447.5,-484.5 333.5,-484.5 333.5,-420.5 447.5,-420.5 447.5,-484.5"/>
<text text-anchor="start" x="374.75" y="-471" font-family="Helvetica,sans-Serif" font-size="10.00">Header</text>
<text text-anchor="start" x="337.5" y="-456" font-family="Helvetica,sans-Serif" font-size="10.00">+</text>
<text text-anchor="start" x="347.5" y="-456" font-family="Helvetica,sans-Serif" font-size="10.00">string key</text>
<text text-anchor="start" x="337.5" y="-441" font-family="Helvetica,sans-Serif" font-size="10.00">+</text>
<text text-anchor="start" x="347.5" y="-441" font-family="Helvetica,sans-Serif" font-size="10.00">repeated string values</text>
<text text-anchor="start" x="389" y="-426" font-family="Helvetica,sans-Serif" font-size="10.00"> </text>
<polygon fill="#666666" stroke="#666666" points="333.5,-467.5 333.5,-467.5 447.5,-467.5 447.5,-467.5 333.5,-467.5"/>
<polygon fill="#666666" stroke="#666666" points="333.5,-437.5 333.5,-437.5 345.5,-437.5 345.5,-437.5 333.5,-437.5"/>
<polygon fill="#666666" stroke="#666666" points="345.5,-437.5 345.5,-437.5 447.5,-437.5 447.5,-437.5 345.5,-437.5"/>
<polygon fill="none" stroke="#666666" points="333.5,-420.5 333.5,-484.5 447.5,-484.5 447.5,-420.5 333.5,-420.5"/>
</a>
</g>
</g>
<!-- Node7&#45;&gt;Node6 -->
<g id="edge6_Node000006_Node000007" class="edge">
<title>Node7&#45;&gt;Node6</title>
<g id="a_edge6_Node000006_Node000007"><a xlink:title=" ">
<path fill="none" stroke="#63b8ff" d="M386.09,-420.58C382.69,-396.79 377.89,-363.07 373.67,-333.51"/>
<polygon fill="none" stroke="#63b8ff" points="373.66,-333.47 368.85,-328.09 371.97,-321.59 376.77,-326.96 373.66,-333.47"/>
</a>
</g>
<text text-anchor="middle" x="429" y="-393" font-family="Helvetica,sans-Serif" font-size="10.00" fill="grey"> +multivalue_headers</text>
</g>
</g>
</svg>
